<svg width="49" height="48" viewBox="0 0 49 48" fill="none" xmlns="http://www.w3.org/2000/svg">
<g clip-path="url(#clip0_6_53)">
<mask id="mask0_6_53" style="mask-type:luminance" maskUnits="userSpaceOnUse" x="0" y="0" width="49" height="48">
<path d="M0.666748 0H48.6667V48H0.666748V0Z" fill="white"/>
</mask>
<g mask="url(#mask0_6_53)">
<path d="M9.02637 9.26843C9.81921 8.361 10.684 7.51899 11.6122 6.75059" stroke="#9DFF3A" stroke-width="1.5" stroke-miterlimit="10" stroke-linecap="round" stroke-linejoin="round"/>
<path d="M4.07739 18.9504C4.62872 16.5539 5.57319 14.2652 6.87245 12.1773" stroke="#9DFF3A" stroke-width="1.5" stroke-miterlimit="10" stroke-linecap="round" stroke-linejoin="round"/>
<path d="M11.4731 41.1333C6.60389 37.0359 3.50732 30.8814 3.50732 24C3.50732 23.7386 3.51182 23.4783 3.52064 23.2192" stroke="#9DFF3A" stroke-width="1.5" stroke-miterlimit="10" stroke-linecap="round" stroke-linejoin="round"/>
<path d="M36.5069 43.5439C33.3161 45.3235 29.6437 46.3369 25.7357 46.3369C21.841 46.3369 18.1804 45.3304 14.9972 43.562" stroke="#9DFF3A" stroke-width="1.5" stroke-miterlimit="10" stroke-linecap="round" stroke-linejoin="round"/>
<path d="M44.5842 12.1537C46.7259 15.5875 47.9641 19.6484 47.9641 23.9999C47.9641 30.8712 44.8767 37.0178 40.0197 41.1152" stroke="#9DFF3A" stroke-width="1.5" stroke-miterlimit="10" stroke-linecap="round" stroke-linejoin="round"/>
<path d="M39.6619 6.58923C40.4844 7.25454 41.2588 7.97725 41.9793 8.75195" stroke="#9DFF3A" stroke-width="1.5" stroke-miterlimit="10" stroke-linecap="round" stroke-linejoin="round"/>
<path d="M15.1365 4.36145C18.287 2.64067 21.898 1.66314 25.7361 1.66314C29.4757 1.66314 32.9997 2.59117 36.0923 4.23048" stroke="#9DFF3A" stroke-width="1.5" stroke-miterlimit="10" stroke-linecap="round" stroke-linejoin="round"/>
<path d="M27.5966 9.47144C30.1002 7.9134 32.8581 6.68884 35.8219 5.87144" stroke="#9DFF3A" stroke-width="1.5" stroke-miterlimit="10" stroke-linecap="round" stroke-linejoin="round"/>
<path d="M18.4894 18.0847C20.0967 15.8026 21.9989 13.7432 24.1464 11.9601" stroke="#9DFF3A" stroke-width="1.5" stroke-miterlimit="10" stroke-linecap="round" stroke-linejoin="round"/>
<path d="M12.93 40.2014C12.1299 33.6596 13.3949 27.2742 16.2525 21.7639" stroke="#9DFF3A" stroke-width="1.5" stroke-miterlimit="10" stroke-linecap="round" stroke-linejoin="round"/>
<path d="M23.8741 9.47156C21.2858 7.86084 18.4258 6.60656 15.3474 5.79" stroke="#9DFF3A" stroke-width="1.5" stroke-miterlimit="10" stroke-linecap="round" stroke-linejoin="round"/>
<path d="M36.0368 23.4637C34.0595 19.0249 31.0804 15.076 27.3253 11.9602" stroke="#9DFF3A" stroke-width="1.5" stroke-miterlimit="10" stroke-linecap="round" stroke-linejoin="round"/>
<path d="M38.4383 31.7161C38.227 30.2883 37.9183 28.8767 37.5144 27.491" stroke="#9DFF3A" stroke-width="1.5" stroke-miterlimit="10" stroke-linecap="round" stroke-linejoin="round"/>
<path d="M38.5284 40.3079C38.7147 38.8264 38.7967 37.3337 38.7739 35.8408" stroke="#9DFF3A" stroke-width="1.5" stroke-miterlimit="10" stroke-linecap="round" stroke-linejoin="round"/>
<path d="M15.2796 19.4767C12.0775 19.4604 8.82705 19.804 5.57861 20.537" stroke="#9DFF3A" stroke-width="1.5" stroke-miterlimit="10" stroke-linecap="round" stroke-linejoin="round"/>
<path d="M34.9925 24.399C30.2253 21.8999 24.9877 20.2866 19.5391 19.7117" stroke="#9DFF3A" stroke-width="1.5" stroke-miterlimit="10" stroke-linecap="round" stroke-linejoin="round"/>
<path d="M46.1694 32.8053C43.9151 30.4517 41.4024 28.3601 38.6791 26.5699" stroke="#9DFF3A" stroke-width="1.5" stroke-miterlimit="10" stroke-linecap="round" stroke-linejoin="round"/>
<path d="M37.9249 23.587C40.0549 20.1584 41.694 16.4484 42.7946 12.565" stroke="#9DFF3A" stroke-width="1.5" stroke-miterlimit="10" stroke-linecap="round" stroke-linejoin="round"/>
<path d="M15.2792 41.6816C23.3152 38.9102 30.3475 33.8074 35.4947 27.1002" stroke="#9DFF3A" stroke-width="1.5" stroke-miterlimit="10" stroke-linecap="round" stroke-linejoin="round"/>
<path d="M25.7351 12.6737C24.5564 12.6737 23.5975 11.7101 23.5975 10.5256C23.5975 9.34117 24.5564 8.37761 25.7351 8.37761C26.9138 8.37761 27.8727 9.34117 27.8727 10.5256C27.8727 11.7101 26.9138 12.6737 25.7351 12.6737Z" stroke="#9DFF3A" stroke-width="1.5" stroke-miterlimit="10" stroke-linecap="round" stroke-linejoin="round"/>
<path d="M17.4168 22.1118C16.238 22.1118 15.2792 21.1482 15.2792 19.9637C15.2792 18.7793 16.238 17.8156 17.4168 17.8156C18.5955 17.8156 19.5544 18.7793 19.5544 19.9637C19.5544 21.1482 18.5955 22.1118 17.4168 22.1118Z" stroke="#9DFF3A" stroke-width="1.5" stroke-miterlimit="10" stroke-linecap="round" stroke-linejoin="round"/>
<path d="M36.8579 27.595C35.6792 27.595 34.7203 26.6313 34.7203 25.4469C34.7203 24.2624 35.6792 23.2988 36.8579 23.2988C38.0366 23.2988 38.9955 24.2624 38.9955 25.4469C38.9955 26.6313 38.0366 27.595 36.8579 27.595Z" stroke="#9DFF3A" stroke-width="1.5" stroke-miterlimit="10" stroke-linecap="round" stroke-linejoin="round"/>
<path d="M13.25 44.4733C12.0713 44.4733 11.1124 43.5097 11.1124 42.3252C11.1124 41.1407 12.0713 40.1772 13.25 40.1772C14.4287 40.1772 15.3877 41.1407 15.3877 42.3252C15.3877 43.5097 14.4287 44.4733 13.25 44.4733Z" stroke="#9DFF3A" stroke-width="1.5" stroke-miterlimit="10" stroke-linecap="round" stroke-linejoin="round"/>
<path d="M38.344 44.5957C37.1653 44.5957 36.2064 43.632 36.2064 42.4476C36.2064 41.2632 37.1653 40.2995 38.344 40.2995C39.5227 40.2995 40.4817 41.2632 40.4817 42.4476C40.4817 43.632 39.5227 44.5957 38.344 44.5957Z" stroke="#9DFF3A" stroke-width="1.5" stroke-miterlimit="10" stroke-linecap="round" stroke-linejoin="round"/>
<path d="M43.328 12.5651C42.1493 12.5651 41.1903 11.6014 41.1903 10.417C41.1903 9.23253 42.1493 8.26888 43.328 8.26888C44.5067 8.26888 45.4656 9.23253 45.4656 10.417C45.4656 11.6014 44.5067 12.5651 43.328 12.5651Z" stroke="#9DFF3A" stroke-width="1.5" stroke-miterlimit="10" stroke-linecap="round" stroke-linejoin="round"/>
<path d="M37.9013 7.52063C36.7225 7.52063 35.7637 6.55707 35.7637 5.37254C35.7637 4.1881 36.7225 3.22454 37.9013 3.22454C39.08 3.22454 40.039 4.1881 40.039 5.37254C40.039 6.55707 39.08 7.52063 37.9013 7.52063Z" stroke="#9DFF3A" stroke-width="1.5" stroke-miterlimit="10" stroke-linecap="round" stroke-linejoin="round"/>
<path d="M13.25 7.52063C12.0713 7.52063 11.1124 6.55707 11.1124 5.37254C11.1124 4.1881 12.0713 3.22454 13.25 3.22454C14.4287 3.22454 15.3877 4.1881 15.3877 5.37254C15.3877 6.55707 14.4287 7.52063 13.25 7.52063Z" stroke="#9DFF3A" stroke-width="1.5" stroke-miterlimit="10" stroke-linecap="round" stroke-linejoin="round"/>
<path d="M3.50747 23.2186C2.32875 23.2186 1.36987 22.2551 1.36987 21.0705C1.36987 19.8861 2.32875 18.9225 3.50747 18.9225C4.68619 18.9225 5.64506 19.8861 5.64506 21.0705C5.64506 22.2551 4.68619 23.2186 3.50747 23.2186Z" stroke="#9DFF3A" stroke-width="1.5" stroke-miterlimit="10" stroke-linecap="round" stroke-linejoin="round"/>
</g>
</g>
<defs>
<clipPath id="clip0_6_53">
<rect width="48" height="48" fill="white" transform="translate(0.666748)"/>
</clipPath>
</defs>
</svg>
