<svg width="33" height="32" viewBox="0 0 33 32" fill="none" xmlns="http://www.w3.org/2000/svg">
<path fill-rule="evenodd" clip-rule="evenodd" d="M16.5 32C25.3366 32 32.5 24.8365 32.5 16C32.5 7.16345 25.3366 0 16.5 0C7.66343 0 0.5 7.16345 0.5 16C0.5 24.8365 7.66343 32 16.5 32ZM21.4915 7.45347C21.7344 6.59044 20.8969 6.0801 20.132 6.62504L9.45449 14.2317C8.62497 14.8226 8.75545 16 9.65049 16H12.4622V15.9782H17.942L13.477 17.5537L11.5086 24.5465C11.2656 25.4096 12.1031 25.9199 12.868 25.3749L23.5455 17.7684C24.3751 17.1774 24.2445 16 23.3495 16H19.0857L21.4915 7.45347Z" fill="#9DFF3A"/>
</svg>
