<svg width="132" height="32" viewBox="0 0 132 32" fill="none" xmlns="http://www.w3.org/2000/svg">
<g clip-path="url(#clip0_1_133)">
<path d="M40.4628 21.9613H49.6728V19.1516H43.7362V8.56818H40.4628V21.9613Z" fill="#999999"/>
<path d="M55.1295 20.0882C53.8164 20.0882 53.1321 18.9268 53.1321 17.1848C53.1321 15.4427 53.8164 14.2626 55.1295 14.2626C56.4425 14.2626 57.1453 15.4427 57.1453 17.1848C57.1453 18.9268 56.4425 20.0882 55.1295 20.0882ZM55.148 22.261C58.1995 22.261 60.1968 20.0694 60.1968 17.1848C60.1968 14.3001 58.1995 12.1085 55.148 12.1085C52.1149 12.1085 50.0806 14.3001 50.0806 17.1848C50.0806 20.0694 52.1149 22.261 55.148 22.261Z" fill="#999999"/>
<path d="M65.4788 25.2769C66.8844 25.2769 68.1235 24.9585 68.9557 24.2092C69.714 23.5161 70.2133 22.4671 70.2133 21.0248V12.3708H67.3282V13.401H67.2912C66.7364 12.5955 65.8857 12.0898 64.6281 12.0898C62.2793 12.0898 60.6519 14.0753 60.6519 16.8851C60.6519 19.826 62.6307 21.4369 64.7576 21.4369C65.9042 21.4369 66.6255 20.9686 67.1803 20.3317H67.2543V21.2871C67.2543 22.4484 66.7179 23.1228 65.4418 23.1228C64.4432 23.1228 63.9438 22.6919 63.7774 22.1862H60.8553C61.1512 24.1905 62.8711 25.2769 65.4788 25.2769ZM65.4603 19.1704C64.3322 19.1704 63.5924 18.2338 63.5924 16.7914C63.5924 15.3304 64.3322 14.3938 65.4603 14.3938C66.7179 14.3938 67.3837 15.4802 67.3837 16.7727C67.3837 18.1214 66.7734 19.1704 65.4603 19.1704Z" fill="#999999"/>
<path d="M76.1456 20.0882C74.8325 20.0882 74.1482 18.9268 74.1482 17.1848C74.1482 15.4427 74.8325 14.2626 76.1456 14.2626C77.4587 14.2626 78.1614 15.4427 78.1614 17.1848C78.1614 18.9268 77.4587 20.0882 76.1456 20.0882ZM76.1641 22.261C79.2156 22.261 81.213 20.0694 81.213 17.1848C81.213 14.3001 79.2156 12.1085 76.1641 12.1085C73.131 12.1085 71.0967 14.3001 71.0967 17.1848C71.0967 20.0694 73.131 22.261 76.1641 22.261Z" fill="#999999"/>
<path d="M82.093 21.9613H85.1075V12.3707H82.093V21.9613ZM82.093 11.0408H85.1075V8.56818H82.093V11.0408Z" fill="#999999"/>
<path d="M86.416 25.1271H89.4305V20.9686H89.4675C90.0593 21.7741 90.9285 22.2611 92.1491 22.2611C94.6273 22.2611 96.2733 20.2755 96.2733 17.1661C96.2733 14.2814 94.7383 12.0898 92.2231 12.0898C90.9285 12.0898 90.0038 12.6705 89.3565 13.5321H89.301V12.3708H86.416V25.1271ZM91.3724 19.9009C90.0778 19.9009 89.338 18.8332 89.338 17.2785C89.338 15.7237 90.0038 14.5436 91.3169 14.5436C92.6115 14.5436 93.2218 15.6301 93.2218 17.2785C93.2218 18.9081 92.519 19.9009 91.3724 19.9009Z" fill="#999999"/>
<path d="M101.181 22.2611C103.659 22.2611 105.49 21.1747 105.49 19.0767C105.49 16.6229 103.53 16.192 101.865 15.9111C100.663 15.6863 99.5907 15.5926 99.5907 14.9183C99.5907 14.3189 100.164 14.0379 100.904 14.0379C101.736 14.0379 102.309 14.3001 102.42 15.1618H105.194C105.046 13.2699 103.604 12.0898 100.922 12.0898C98.6845 12.0898 96.8351 13.1388 96.8351 15.1618C96.8351 17.4096 98.592 17.8591 100.238 18.1401C101.496 18.3649 102.642 18.4586 102.642 19.3202C102.642 19.9384 102.069 20.2755 101.163 20.2755C100.164 20.2755 99.5352 19.8072 99.4243 18.8519H96.5762C96.6686 20.9686 98.4071 22.2611 101.181 22.2611Z" fill="#999999"/>
<path d="M109.585 22.2423C110.898 22.2423 111.731 21.7178 112.415 20.7813H112.47V21.9614H115.355V12.3707H112.341V17.728C112.341 18.8706 111.712 19.6574 110.676 19.6574C109.715 19.6574 109.252 19.0767 109.252 18.0277V12.3707H106.256V18.6646C106.256 20.8 107.403 22.2423 109.585 22.2423Z" fill="#999999"/>
<path d="M116.666 21.9614H119.681V16.5854C119.681 15.4428 120.236 14.6373 121.179 14.6373C122.085 14.6373 122.51 15.2367 122.51 16.267V21.9614H125.525V16.5854C125.525 15.4428 126.061 14.6373 127.023 14.6373C127.929 14.6373 128.354 15.2367 128.354 16.267V21.9614H131.369V15.7237C131.369 13.5696 130.296 12.0898 128.151 12.0898C126.93 12.0898 125.913 12.6143 125.173 13.7756H125.137C124.656 12.7454 123.712 12.0898 122.473 12.0898C121.105 12.0898 120.199 12.7454 119.607 13.7382H119.551V12.3708H116.666V21.9614Z" fill="#999999"/>
<path fill-rule="evenodd" clip-rule="evenodd" d="M16.4389 31.3272C24.9506 31.3272 31.8507 24.3384 31.8507 15.7174C31.8507 7.0964 24.9506 0.107666 16.4389 0.107666C7.92723 0.107666 1.02716 7.0964 1.02716 15.7174C1.02716 24.3384 7.92723 31.3272 16.4389 31.3272ZM21.2469 7.37934C21.4809 6.53736 20.6742 6.03947 19.9374 6.57112L9.65245 13.9922C8.85342 14.5688 8.97911 15.7174 9.84124 15.7174H12.5495V15.6962H17.8279L13.527 17.2332L11.631 24.0555C11.397 24.8975 12.2036 25.3954 12.9405 24.8637L23.2254 17.4427C24.0245 16.8661 23.8987 15.7174 23.0366 15.7174H18.9296L21.2469 7.37934Z" fill="#999999"/>
</g>
<defs>
<clipPath id="clip0_1_133">
<rect width="131" height="32" fill="white" transform="translate(0.5)"/>
</clipPath>
</defs>
</svg>
