<svg width="130" height="32" viewBox="0 0 130 32" fill="none" xmlns="http://www.w3.org/2000/svg">
<g clip-path="url(#clip0_1_106)">
<path d="M38.065 22.4731H47.2974V19.6633H41.3464V9.0799H38.065V22.4731Z" fill="#999999"/>
<path d="M52.7673 20.5999C51.4511 20.5999 50.7651 19.4385 50.7651 17.6965C50.7651 15.9544 51.4511 14.7743 52.7673 14.7743C54.0836 14.7743 54.7881 15.9544 54.7881 17.6965C54.7881 19.4385 54.0836 20.5999 52.7673 20.5999ZM52.7859 22.7728C55.8448 22.7728 57.847 20.5812 57.847 17.6965C57.847 14.8118 55.8448 12.6202 52.7859 12.6202C49.7455 12.6202 47.7062 14.8118 47.7062 17.6965C47.7062 20.5812 49.7455 22.7728 52.7859 22.7728Z" fill="#999999"/>
<path d="M63.1417 25.7886C64.5507 25.7886 65.7928 25.4701 66.627 24.7209C67.3871 24.0278 67.8877 22.9788 67.8877 21.5365V12.8824H64.9956V13.9127H64.9585C64.4023 13.1072 63.5496 12.6014 62.2889 12.6014C59.9345 12.6014 58.303 14.587 58.303 17.3968C58.303 20.3376 60.2867 21.9486 62.4187 21.9486C63.5681 21.9486 64.2911 21.4803 64.8473 20.8434H64.9214V21.7987C64.9214 22.9601 64.3838 23.6344 63.1046 23.6344C62.1035 23.6344 61.603 23.2036 61.4361 22.6978H58.507C58.8036 24.7021 60.5277 25.7886 63.1417 25.7886ZM63.1232 19.682C61.9923 19.682 61.2507 18.7454 61.2507 17.3031C61.2507 15.842 61.9923 14.9054 63.1232 14.9054C64.3838 14.9054 65.0512 15.9919 65.0512 17.2844C65.0512 18.633 64.4394 19.682 63.1232 19.682Z" fill="#999999"/>
<path d="M73.8343 20.5999C72.5181 20.5999 71.8321 19.4385 71.8321 17.6965C71.8321 15.9544 72.5181 14.7743 73.8343 14.7743C75.1506 14.7743 75.8551 15.9544 75.8551 17.6965C75.8551 19.4385 75.1506 20.5999 73.8343 20.5999ZM73.8529 22.7728C76.9118 22.7728 78.9142 20.5812 78.9142 17.6965C78.9142 14.8118 76.9118 12.6202 73.8529 12.6202C70.8125 12.6202 68.7732 14.8118 68.7732 17.6965C68.7732 20.5812 70.8125 22.7728 73.8529 22.7728Z" fill="#999999"/>
<path d="M79.7964 22.4731H82.8182V12.8824H79.7964V22.4731ZM79.7964 11.5525H82.8182V9.0799H79.7964V11.5525Z" fill="#999999"/>
<path d="M84.1291 25.6387H87.1509V21.4803H87.188C87.7813 22.2857 88.6526 22.7728 89.8762 22.7728C92.3604 22.7728 94.0103 20.7872 94.0103 17.6777C94.0103 14.793 92.4716 12.6014 89.9503 12.6014C88.6526 12.6014 87.7256 13.1821 87.0768 14.0438H87.0212V12.8824H84.1291V25.6387ZM89.0975 20.4126C87.7998 20.4126 87.0582 19.3449 87.0582 17.7901C87.0582 16.2354 87.7256 15.0553 89.0419 15.0553C90.3396 15.0553 90.9514 16.1417 90.9514 17.7901C90.9514 19.4198 90.2469 20.4126 89.0975 20.4126Z" fill="#999999"/>
<path d="M98.9309 22.7728C101.415 22.7728 103.25 21.6863 103.25 19.5884C103.25 17.1345 101.285 16.7037 99.6168 16.4227C98.4118 16.1979 97.3365 16.1043 97.3365 15.4299C97.3365 14.8305 97.9112 14.5495 98.6528 14.5495C99.487 14.5495 100.062 14.8118 100.173 15.6734H102.954C102.805 13.7815 101.359 12.6014 98.6713 12.6014C96.4281 12.6014 94.5742 13.6504 94.5742 15.6734C94.5742 17.9212 96.3354 18.3708 97.9854 18.6518C99.246 18.8766 100.395 18.9702 100.395 19.8319C100.395 20.45 99.8207 20.7872 98.9123 20.7872C97.9112 20.7872 97.2809 20.3189 97.1697 19.3636H94.3147C94.4074 21.4803 96.15 22.7728 98.9309 22.7728Z" fill="#999999"/>
<path d="M107.354 22.7541C108.671 22.7541 109.505 22.2296 110.191 21.293H110.247V22.4731H113.139V12.8824H110.117V18.2397C110.117 19.3823 109.486 20.1691 108.448 20.1691C107.484 20.1691 107.021 19.5884 107.021 18.5394V12.8824H104.017V19.1763C104.017 21.3117 105.167 22.7541 107.354 22.7541Z" fill="#999999"/>
<path d="M114.453 22.4731H117.475V17.0971C117.475 15.9544 118.031 15.149 118.977 15.149C119.885 15.149 120.312 15.7484 120.312 16.7786V22.4731H123.333V17.0971C123.333 15.9544 123.871 15.149 124.835 15.149C125.744 15.149 126.17 15.7484 126.17 16.7786V22.4731H129.192V16.2354C129.192 14.0812 128.117 12.6014 125.966 12.6014C124.742 12.6014 123.723 13.1259 122.981 14.2873H122.944C122.462 13.2571 121.517 12.6014 120.275 12.6014C118.903 12.6014 117.994 13.2571 117.401 14.2498H117.345V12.8824H114.453V22.4731Z" fill="#999999"/>
<path fill-rule="evenodd" clip-rule="evenodd" d="M7.18497 3.03715C6.07985 3.81792 5.08052 4.74105 4.21302 5.7802C7.75805 5.44766 12.2619 5.99066 17.4908 8.63232C23.0745 11.4532 27.5709 11.5485 30.7001 10.9387C30.4161 10.0701 30.0586 9.23525 29.6352 8.44165C26.0531 8.82339 21.4609 8.3181 16.109 5.61441C12.7105 3.89749 9.71478 3.19024 7.18497 3.03715ZM27.5427 5.4323C24.7139 2.23882 20.603 0.229065 16.0274 0.229065C14.6838 0.229065 13.38 0.402417 12.1371 0.728171C13.8205 1.19225 15.6087 1.8712 17.4908 2.82205C21.4091 4.80157 24.792 5.43894 27.5427 5.4323ZM31.3691 13.9876C27.5887 14.7418 22.3684 14.5869 16.109 11.4247C10.2572 8.46834 5.59966 8.50557 2.45845 9.2109C2.29631 9.24727 2.13799 9.28551 1.98349 9.32532C1.57223 10.229 1.24394 11.1794 1.0084 12.1662C1.25997 12.0983 1.51994 12.0338 1.78816 11.9735C5.599 11.1179 10.9834 11.155 17.4908 14.4426C23.3427 17.3989 28.0002 17.3617 31.1414 16.6564C31.2491 16.6322 31.3551 16.6073 31.4594 16.5815C31.4708 16.3354 31.4765 16.0878 31.4765 15.8388C31.4765 15.2125 31.4401 14.5947 31.3691 13.9876ZM30.955 19.8757C27.2113 20.537 22.143 20.2832 16.109 17.2349C10.2572 14.2786 5.59966 14.3158 2.45845 15.0212C1.76119 15.1777 1.13395 15.3683 0.580632 15.5696C0.579124 15.6591 0.578369 15.7489 0.578369 15.8388C0.578369 24.4598 7.49516 31.4486 16.0274 31.4486C23.1781 31.4486 29.1942 26.54 30.955 19.8757Z" fill="#999999"/>
</g>
<defs>
<clipPath id="clip0_1_106">
<rect width="129" height="32" fill="white" transform="translate(0.5)"/>
</clipPath>
</defs>
</svg>
