<svg width="131" height="32" viewBox="0 0 131 32" fill="none" xmlns="http://www.w3.org/2000/svg">
<g clip-path="url(#clip0_1_117)">
<path d="M38.6314 22.597H47.88V19.7872H41.9186V9.2038H38.6314V22.597Z" fill="#999999"/>
<path d="M53.3595 20.7238C52.0409 20.7238 51.3538 19.5625 51.3538 17.8204C51.3538 16.0784 52.0409 14.8983 53.3595 14.8983C54.6781 14.8983 55.3838 16.0784 55.3838 17.8204C55.3838 19.5625 54.6781 20.7238 53.3595 20.7238ZM53.3781 22.8967C56.4423 22.8967 58.4481 20.7051 58.4481 17.8204C58.4481 14.9358 56.4423 12.7441 53.3781 12.7441C50.3323 12.7441 48.2895 14.9358 48.2895 17.8204C48.2895 20.7051 50.3323 22.8967 53.3781 22.8967Z" fill="#999999"/>
<path d="M63.7521 25.9125C65.1635 25.9125 66.4078 25.5941 67.2435 24.8448C68.0049 24.1517 68.5063 23.1028 68.5063 21.6604V13.0064H65.6092V14.0366H65.5721C65.0149 13.2312 64.1606 12.7254 62.8978 12.7254C60.5392 12.7254 58.9049 14.711 58.9049 17.5207C58.9049 20.4616 60.8921 22.0725 63.0278 22.0725C64.1792 22.0725 64.9035 21.6042 65.4606 20.9674H65.5349V21.9227C65.5349 23.084 64.9963 23.7584 63.7149 23.7584C62.7121 23.7584 62.2106 23.3275 62.0435 22.8218H59.1092C59.4063 24.8261 61.1335 25.9125 63.7521 25.9125ZM63.7335 19.806C62.6006 19.806 61.8578 18.8694 61.8578 17.4271C61.8578 15.966 62.6006 15.0294 63.7335 15.0294C64.9963 15.0294 65.6649 16.1158 65.6649 17.4083C65.6649 18.757 65.0521 19.806 63.7335 19.806Z" fill="#999999"/>
<path d="M74.4634 20.7238C73.1449 20.7238 72.4577 19.5625 72.4577 17.8204C72.4577 16.0784 73.1449 14.8983 74.4634 14.8983C75.782 14.8983 76.4877 16.0784 76.4877 17.8204C76.4877 19.5625 75.782 20.7238 74.4634 20.7238ZM74.482 22.8967C77.5463 22.8967 79.5516 20.7051 79.5516 17.8204C79.5516 14.9358 77.5463 12.7441 74.482 12.7441C71.4363 12.7441 69.3934 14.9358 69.3934 17.8204C69.3934 20.7051 71.4363 22.8967 74.482 22.8967Z" fill="#999999"/>
<path d="M80.4361 22.597H83.4632V13.0063H80.4361V22.597ZM80.4361 11.6764H83.4632V9.2038H80.4361V11.6764Z" fill="#999999"/>
<path d="M84.7764 25.7627H87.8035V21.6042H87.8407C88.4349 22.4097 89.3078 22.8967 90.5335 22.8967C93.0221 22.8967 94.6749 20.9112 94.6749 17.8017C94.6749 14.917 93.1335 12.7254 90.6078 12.7254C89.3078 12.7254 88.3792 13.3061 87.7292 14.1677H87.6735V13.0064H84.7764V25.7627ZM89.7535 20.5365C88.4535 20.5365 87.7107 19.4688 87.7107 17.9141C87.7107 16.3594 88.3792 15.1793 89.6978 15.1793C90.9978 15.1793 91.6106 16.2657 91.6106 17.9141C91.6106 19.5437 90.9049 20.5365 89.7535 20.5365Z" fill="#999999"/>
<path d="M99.6034 22.8967C102.092 22.8967 103.93 21.8103 103.93 19.7123C103.93 17.2585 101.962 16.8276 100.29 16.5467C99.0834 16.3219 98.0062 16.2282 98.0062 15.5539C98.0062 14.9545 98.5819 14.6735 99.3248 14.6735C100.16 14.6735 100.736 14.9357 100.848 15.7974H103.633C103.485 13.9055 102.036 12.7254 99.3434 12.7254C97.0962 12.7254 95.2391 13.7744 95.2391 15.7974C95.2391 18.0452 97.0034 18.4948 98.6562 18.7757C99.9191 19.0005 101.07 19.0942 101.07 19.9558C101.07 20.574 100.495 20.9112 99.5848 20.9112C98.5819 20.9112 97.9505 20.4429 97.8391 19.4875H94.9791C95.0719 21.6042 96.8176 22.8967 99.6034 22.8967Z" fill="#999999"/>
<path d="M108.042 22.878C109.361 22.878 110.197 22.3535 110.884 21.4169H110.94V22.597H113.837V13.0063H110.81V18.3636C110.81 19.5062 110.178 20.293 109.138 20.293C108.172 20.293 107.708 19.7123 107.708 18.6633V13.0063H104.7V19.3002C104.7 21.4356 105.851 22.878 108.042 22.878Z" fill="#999999"/>
<path d="M115.154 22.597H118.181V17.221C118.181 16.0784 118.738 15.2729 119.685 15.2729C120.595 15.2729 121.022 15.8723 121.022 16.9026V22.597H124.05V17.221C124.05 16.0784 124.588 15.2729 125.554 15.2729C126.464 15.2729 126.891 15.8723 126.891 16.9026V22.597H129.918V16.3594C129.918 14.2052 128.841 12.7254 126.687 12.7254C125.461 12.7254 124.44 13.2499 123.697 14.4113H123.66C123.177 13.381 122.23 12.7254 120.985 12.7254C119.611 12.7254 118.701 13.381 118.107 14.3738H118.051V13.0064H115.154V22.597Z" fill="#999999"/>
<path d="M20.1624 1.54292L17.119 0.720398L14.5543 10.3747L12.2389 1.65873L9.19539 2.48126L11.6971 11.8982L5.4659 5.61326L3.23796 7.86043L10.0728 14.7543L1.56109 12.4539L0.745605 15.5236L10.0457 18.0371C9.93925 17.5738 9.88292 17.0912 9.88292 16.5953C9.88292 13.0849 12.7042 10.2393 16.1845 10.2393C19.6648 10.2393 22.4861 13.0849 22.4861 16.5953C22.4861 17.088 22.4305 17.5677 22.3253 18.0282L30.7774 20.3124L31.5928 17.2428L22.2557 14.7193L30.768 12.4187L29.9525 9.34906L20.6158 11.8724L26.847 5.58746L24.619 3.34028L17.879 10.1385L20.1624 1.54292Z" fill="#999999"/>
<path d="M22.317 18.0639C22.0561 19.1766 21.5052 20.1761 20.7493 20.977L26.8725 27.1531L29.1004 24.9059L22.317 18.0639Z" fill="#999999"/>
<path d="M20.6875 21.0416C19.9225 21.8297 18.9558 22.4178 17.8716 22.7208L20.0998 31.108L23.1431 30.2854L20.6875 21.0416Z" fill="#999999"/>
<path d="M17.7579 22.7515C17.255 22.882 16.7278 22.9513 16.1845 22.9513C15.6024 22.9513 15.0388 22.8717 14.5037 22.7227L12.2736 31.1174L15.317 31.9399L17.7579 22.7515Z" fill="#999999"/>
<path d="M14.3961 22.6916C13.3286 22.3735 12.379 21.7779 11.6297 20.9876L5.49146 27.1788L7.7194 29.426L14.3961 22.6916Z" fill="#999999"/>
<path d="M11.5785 20.9329C10.842 20.1376 10.3055 19.1514 10.0501 18.0559L1.57043 20.3477L2.38591 23.4173L11.5785 20.9329Z" fill="#999999"/>
</g>
<defs>
<clipPath id="clip0_1_117">
<rect width="130" height="32" fill="white" transform="translate(0.5)"/>
</clipPath>
</defs>
</svg>
