<svg width="133" height="32" viewBox="0 0 133 32" fill="none" xmlns="http://www.w3.org/2000/svg">
<g clip-path="url(#clip0_1_144)">
<path d="M40.3155 22.8864H49.5959V20.0766H43.6139V9.49323H40.3155V22.8864Z" fill="#999999"/>
<path d="M55.0941 21.0132C53.771 21.0132 53.0815 19.8518 53.0815 18.1098C53.0815 16.3678 53.771 15.1877 55.0941 15.1877C56.4172 15.1877 57.1253 16.3678 57.1253 18.1098C57.1253 19.8518 56.4172 21.0132 55.0941 21.0132ZM55.1127 23.1861C58.1875 23.1861 60.2002 20.9945 60.2002 18.1098C60.2002 15.2251 58.1875 13.0335 55.1127 13.0335C52.0565 13.0335 50.0067 15.2251 50.0067 18.1098C50.0067 20.9945 52.0565 23.1861 55.1127 23.1861Z" fill="#999999"/>
<path d="M65.5224 26.2019C66.9387 26.2019 68.1873 25.8835 69.0259 25.1342C69.7899 24.4411 70.2931 23.3921 70.2931 21.9498V13.2957H67.386V14.326H67.3487C66.7896 13.5205 65.9324 13.0148 64.6652 13.0148C62.2985 13.0148 60.6586 15.0003 60.6586 17.8101C60.6586 20.751 62.6526 22.3619 64.7957 22.3619C65.9511 22.3619 66.6778 21.8936 67.2369 21.2567H67.3114V22.212C67.3114 23.3734 66.771 24.0477 65.4852 24.0477C64.4789 24.0477 63.9757 23.6169 63.808 23.1112H60.8636C61.1618 25.1155 62.8949 26.2019 65.5224 26.2019ZM65.5038 20.0954C64.3671 20.0954 63.6216 19.1588 63.6216 17.7164C63.6216 16.2554 64.3671 15.3188 65.5038 15.3188C66.771 15.3188 67.4419 16.4052 67.4419 17.6977C67.4419 19.0464 66.8269 20.0954 65.5038 20.0954Z" fill="#999999"/>
<path d="M76.2707 21.0132C74.9476 21.0132 74.2581 19.8518 74.2581 18.1098C74.2581 16.3678 74.9476 15.1877 76.2707 15.1877C77.5938 15.1877 78.3016 16.3678 78.3016 18.1098C78.3016 19.8518 77.5938 21.0132 76.2707 21.0132ZM76.2893 23.1861C79.3638 23.1861 81.3764 20.9945 81.3764 18.1098C81.3764 15.2251 79.3638 13.0335 76.2893 13.0335C73.2331 13.0335 71.1832 15.2251 71.1832 18.1098C71.1832 20.9945 73.2331 23.1861 76.2893 23.1861Z" fill="#999999"/>
<path d="M82.2639 22.8864H85.3015V13.2958H82.2639V22.8864ZM82.2639 11.9658H85.3015V9.49323H82.2639V11.9658Z" fill="#999999"/>
<path d="M86.6191 26.052H89.6567V21.8936H89.694C90.2903 22.6991 91.1661 23.1861 92.3961 23.1861C94.8932 23.1861 96.5518 21.2005 96.5518 18.0911C96.5518 15.2064 95.005 13.0148 92.4706 13.0148C91.1661 13.0148 90.2344 13.5955 89.5821 14.4571H89.5262V13.2957H86.6191V26.052ZM91.6134 20.8259C90.3089 20.8259 89.5635 19.7582 89.5635 18.2035C89.5635 16.6487 90.2344 15.4686 91.5575 15.4686C92.862 15.4686 93.4769 16.5551 93.4769 18.2035C93.4769 19.8331 92.7688 20.8259 91.6134 20.8259Z" fill="#999999"/>
<path d="M101.497 23.1861C103.994 23.1861 105.839 22.0996 105.839 20.0017C105.839 17.5478 103.864 17.117 102.187 16.836C100.975 16.6113 99.8944 16.5176 99.8944 15.8433C99.8944 15.2438 100.472 14.9629 101.218 14.9629C102.056 14.9629 102.634 15.2251 102.746 16.0868H105.541C105.392 14.1949 103.938 13.0148 101.236 13.0148C98.9813 13.0148 97.1178 14.0637 97.1178 16.0868C97.1178 18.3346 98.8881 18.7841 100.547 19.0651C101.814 19.2899 102.969 19.3836 102.969 20.2452C102.969 20.8634 102.392 21.2005 101.478 21.2005C100.472 21.2005 99.8385 20.7322 99.7267 19.7769H96.8569C96.95 21.8936 98.7018 23.1861 101.497 23.1861Z" fill="#999999"/>
<path d="M109.965 23.1674C111.288 23.1674 112.127 22.6429 112.816 21.7063H112.872V22.8864H115.779V13.2958H112.742V18.653C112.742 19.7957 112.108 20.5824 111.065 20.5824C110.096 20.5824 109.63 20.0017 109.63 18.9528V13.2958H106.611V19.5896C106.611 21.725 107.766 23.1674 109.965 23.1674Z" fill="#999999"/>
<path d="M117.101 22.8864H120.139V17.5104C120.139 16.3677 120.698 15.5623 121.648 15.5623C122.561 15.5623 122.99 16.1617 122.99 17.1919V22.8864H126.027V17.5104C126.027 16.3677 126.568 15.5623 127.537 15.5623C128.45 15.5623 128.879 16.1617 128.879 17.1919V22.8864H131.916V16.6487C131.916 14.4946 130.835 13.0148 128.674 13.0148C127.444 13.0148 126.419 13.5393 125.673 14.7006H125.636C125.151 13.6704 124.201 13.0148 122.952 13.0148C121.573 13.0148 120.66 13.6704 120.064 14.6632H120.008V13.2957H117.101V22.8864Z" fill="#999999"/>
<path fill-rule="evenodd" clip-rule="evenodd" d="M16.1081 31.4717C24.6849 31.4717 31.6375 24.483 31.6375 15.862C31.6375 7.24098 24.6849 0.252258 16.1081 0.252258C7.53148 0.252258 0.578735 7.24098 0.578735 15.862C0.578735 24.483 7.53148 31.4717 16.1081 31.4717ZM18.5051 12.3128C19.8288 10.9821 19.8288 8.82479 18.5051 7.49414C17.1813 6.1635 15.035 6.1635 13.7112 7.49414C12.3875 8.82479 12.3875 10.9821 13.7112 12.3128L16.1081 14.7221L18.5051 12.3128ZM19.6391 18.2713C20.9629 19.602 23.1092 19.602 24.433 18.2713C25.7567 16.9407 25.7567 14.7833 24.433 13.4527C23.1092 12.1221 20.9629 12.1221 19.6391 13.4527L17.2422 15.8621L19.6391 18.2713ZM18.5051 24.2299C19.8288 22.8992 19.8288 20.7419 18.5051 19.4112L16.1081 17.002L13.7112 19.4112C12.3875 20.7419 12.3875 22.8992 13.7112 24.2299C15.035 25.5606 17.1813 25.5606 18.5051 24.2299ZM7.78332 18.2713C6.45956 16.9407 6.45956 14.7833 7.78332 13.4527C9.10715 12.1221 11.2534 12.1221 12.5772 13.4527L14.9741 15.8621L12.5772 18.2713C11.2534 19.602 9.10715 19.602 7.78332 18.2713Z" fill="#999999"/>
</g>
<defs>
<clipPath id="clip0_1_144">
<rect width="132" height="32" fill="white" transform="translate(0.5)"/>
</clipPath>
</defs>
</svg>
