<svg width="49" height="48" viewBox="0 0 49 48" fill="none" xmlns="http://www.w3.org/2000/svg">
<g clip-path="url(#clip0_6_2)">
<path d="M18.3333 12C18.3333 14.83 18.3333 16.244 17.4533 17.12C16.5753 18 15.1633 18 12.3333 18C9.50331 18 8.08931 18 7.21331 17.12C6.33331 16.242 6.33331 14.83 6.33331 12C6.33331 9.17 6.33331 7.756 7.21331 6.88C8.09131 6 9.50331 6 12.3333 6C15.1633 6 16.5773 6 17.4533 6.88C18.3333 7.758 18.3333 9.17 18.3333 12ZM18.3333 12H24.3333M36.3333 18C33.5033 18 32.0893 18 31.2133 17.12C30.3333 16.242 30.3333 14.83 30.3333 12C30.3333 9.17 30.3333 7.756 31.2133 6.88C32.0913 6 33.5033 6 36.3333 6C39.1633 6 40.5773 6 41.4533 6.88C42.3333 7.758 42.3333 9.17 42.3333 12C42.3333 14.83 42.3333 16.244 41.4533 17.12C40.5753 18 39.1633 18 36.3333 18ZM36.3333 18V24M30.3333 36C30.3333 33.17 30.3333 31.756 31.2133 30.88C32.0913 30 33.5033 30 36.3333 30C39.1633 30 40.5773 30 41.4533 30.88C42.3333 31.758 42.3333 33.172 42.3333 36C42.3333 38.828 42.3333 40.242 41.4533 41.12C40.5753 42 39.1613 42 36.3333 42C33.5053 42 32.0913 42 31.2133 41.12C30.3333 40.242 30.3333 38.83 30.3333 36ZM30.3333 36H24.3333M12.3333 30C15.1633 30 16.5773 30 17.4533 30.88C18.3333 31.758 18.3333 33.17 18.3333 36C18.3333 38.83 18.3333 40.244 17.4533 41.12C16.5753 42 15.1633 42 12.3333 42C9.50331 42 8.08931 42 7.21331 41.12C6.33331 40.242 6.33331 38.83 6.33331 36C6.33331 33.17 6.33331 31.756 7.21331 30.88C8.09131 30 9.50331 30 12.3333 30ZM12.3333 30V24" stroke="#9DFF3A" stroke-width="2" stroke-linecap="round" stroke-linejoin="round"/>
</g>
<defs>
<clipPath id="clip0_6_2">
<rect width="48" height="48" fill="white" transform="translate(0.333313)"/>
</clipPath>
</defs>
</svg>
